<svg xmlns="http://www.w3.org/2000/svg" width="965.7732" height="965.7732" viewBox="0 0 965.7732 965.7732">
	<path d="M838.19024,19.5723c-25.16827,-29.66284,-48.97748,-20.4751,-61.61413,-5.99267c-10.24286,11.739,-7.86817,32.92749,2.10919,42.90478c17.52856,17.52857,37.148,3.33423,64.6109,44.57276c23.64258,35.50195,32.54455,77.53833,32.54455,110.36621c0,52.13427,-10.0075,82.89526,-16.84082,148.562c-3.32293,31.93237,-1.16668,65.41943,-1.16668,65.41943s-3.629,4.79859,-13.83332,15.58057c-15.28955,16.155,-48.96405,9.86157,-65.95727,-6.0398c-22.943,-142.339,-146.344,-251.059,-295.156,-251.059c-106.70752,0,-200.343,55.90917,-253.255,140.0205c-16.8009,20.76075,-78.87573,97.655,-116.69177,147.04737c-18.80615,24.563,-37.90393,47,-40.90014,54.19091s-32.24622,75.291,-32.24622,178.36133s62.62122,213.03174,87.78943,242.69434s48.97754,20.47485,61.61413,5.99243c10.2428,-11.739,7.86817,-32.92749,-2.10925,-42.90479c-17.52856,-17.52856,-37.148,-3.33422,-64.61084,-44.57275c-23.64258,-35.50171,-32.54455,-77.53833,-32.54455,-110.36621c0,-52.13428,10.00744,-82.89526,16.84082,-148.562c3.32287,-31.93237,1.16662,-65.41919,1.16662,-65.41919s3.629,-4.79883,13.83338,-15.58081c15.28955,-16.155,48.964,-9.86157,65.95715,6.03979c22.943,142.34,146.344,251.059,295.156,251.059c106.70758,0,200.34308,-55.90918,253.25507,-140.02051c16.8009,-20.761,78.87573,-97.65528,116.69171,-147.04761c18.80615,-24.563,37.904,-46.99976,40.90027,-54.19067c2.99621,-7.19117,32.24615,-75.29126,32.24615,-178.36158c0,-103.07,-62.621,-213.031,-87.789,-242.694z"/>
</svg>
